<svg xmlns="http://www.w3.org/2000/svg" viewBox="0 0 48 48" width="48" height="48">
  <rect width="48" height="48" rx="11" fill="#059669"/>
  <g transform="translate(8 8) scale(1.333)">
    <path fill="#ffffff" stroke="#ffffff" stroke-width="1" stroke-linejoin="round"
      d="M9.937 15.5A2 2 0 0 0 8.5 14.063l-6.135-1.582a.5.5 0 0 1 0-.962L8.5 9.936A2 2 0 0 0 9.937 8.5l1.582-6.135a.5.5 0 0 1 .962 0L14.063 8.5A2 2 0 0 0 15.5 9.937l6.135 1.581a.5.5 0 0 1 0 .964L15.5 14.063a2 2 0 0 0-1.437 1.437l-1.582 6.135a.5.5 0 0 1-.962 0z"/>
    <path fill="none" stroke="#ffffff" stroke-width="2" stroke-linecap="round"
      d="M20 3v4M22 5h-4"/>
  </g>
</svg>
